<svg id="Layer_1" data-name="Layer 1" xmlns="http://www.w3.org/2000/svg" viewBox="0 0 70 70"><defs><style>.cls-1{fill:#fff;}</style></defs><title>MKebsi's Trademark</title><path class="cls-1" d="M25,15.81V40.57a9.49,9.49,0,0,1-9.49-9.5V6.31A9.51,9.51,0,0,1,25,15.81Z"/><path class="cls-1" d="M54.5,6.31V31.07a9.5,9.5,0,0,1-9.5,9.5V15.81A9.51,9.51,0,0,1,54.5,6.31Z"/><path class="cls-1" d="M39.75,13.66V46.23a4.75,4.75,0,0,1-9.5,0V13.66a4.74,4.74,0,0,1,8.11-3.35A4.7,4.7,0,0,1,39.75,13.66Z"/><path class="cls-1" d="M25.69,54.81a.45.45,0,0,1,.12.32V60.9a.4.4,0,0,1-.13.31.42.42,0,0,1-.31.13.44.44,0,0,1-.44-.44V56.66l-2.06,4.2a.45.45,0,0,1-.39.22.42.42,0,0,1-.41-.26l-2-4.08V60.9a.44.44,0,0,1-.13.31.42.42,0,0,1-.32.13.44.44,0,0,1-.44-.44V55.13a.42.42,0,0,1,.13-.32.44.44,0,0,1,.31-.13.43.43,0,0,1,.39.24L22.52,60,25,54.92a.43.43,0,0,1,.39-.24A.46.46,0,0,1,25.69,54.81Z"/><path class="cls-1" d="M27.24,61.33a.48.48,0,0,1,0-.7.48.48,0,0,1,.7,0,.52.52,0,0,1,.14.35.5.5,0,0,1-.49.5A.45.45,0,0,1,27.24,61.33Z"/><path class="cls-1" d="M29.44,61.27a.26.26,0,0,1-.08-.19V54.94a.23.23,0,0,1,.08-.18.24.24,0,0,1,.36,0,.23.23,0,0,1,.07.18v3.13l3.31-3.31a.31.31,0,0,1,.19-.08.26.26,0,0,1,.19.08.24.24,0,0,1,.07.18.31.31,0,0,1-.08.19l-2.44,2.44,2.47,3.36a.3.3,0,0,1,.05.15.25.25,0,0,1-.08.18.21.21,0,0,1-.17.08.27.27,0,0,1-.22-.11L30.73,58l-.86.86v2.27a.25.25,0,0,1-.07.19.27.27,0,0,1-.36,0Z"/><path class="cls-1" d="M37.32,56.93a2.14,2.14,0,0,1,.77.81,2.57,2.57,0,0,1,.27,1.19.21.21,0,0,1-.07.17.21.21,0,0,1-.18.07H34.54a2,2,0,0,0,.27.9,1.61,1.61,0,0,0,.63.61,1.83,1.83,0,0,0,.9.23,2,2,0,0,0,.67-.12,1.57,1.57,0,0,0,.53-.3.27.27,0,0,1,.18-.07.3.3,0,0,1,.16,0,.21.21,0,0,1,0,.34,2.11,2.11,0,0,1-.71.41,2.44,2.44,0,0,1-2-.14,2.14,2.14,0,0,1-.82-.84A2.49,2.49,0,0,1,34,59a2.59,2.59,0,0,1,.28-1.23,2,2,0,0,1,.77-.84,2.21,2.21,0,0,1,1.14-.3A2,2,0,0,1,37.32,56.93Zm-2.23.63a1.89,1.89,0,0,0-.54,1.16h3.32a1.72,1.72,0,0,0-.52-1.16,1.64,1.64,0,0,0-2.26,0Z"/><path class="cls-1" d="M43.07,56.94a2.31,2.31,0,0,1,.85.85A2.41,2.41,0,0,1,44.23,59a2.37,2.37,0,0,1-.31,1.21,2.26,2.26,0,0,1-.85.86,2.55,2.55,0,0,1-2.42,0,2.24,2.24,0,0,1-.86-.84,2.33,2.33,0,0,1-.32-1.19V54.94a.25.25,0,0,1,.07-.19.29.29,0,0,1,.18-.07.27.27,0,0,1,.19.07.25.25,0,0,1,.07.19V57.6a2,2,0,0,1,.77-.71,2.24,2.24,0,0,1,1.1-.26A2.43,2.43,0,0,1,43.07,56.94Zm-.27,3.72a1.75,1.75,0,0,0,.67-.68,2,2,0,0,0,0-1.95,1.82,1.82,0,0,0-.67-.68,1.9,1.9,0,0,0-.95-.25,1.93,1.93,0,0,0-1,.25,1.82,1.82,0,0,0-.67.68,2.1,2.1,0,0,0,0,1.95,1.75,1.75,0,0,0,.67.68,1.84,1.84,0,0,0,1,.26A1.81,1.81,0,0,0,42.8,60.66Z"/><path class="cls-1" d="M46.13,61.22a1.86,1.86,0,0,1-.77-.54.2.2,0,0,1-.06-.15.23.23,0,0,1,.11-.2.26.26,0,0,1,.14,0,.23.23,0,0,1,.2.1,2.12,2.12,0,0,0,2.37.28.74.74,0,0,0,.31-.62c0-.44-.43-.73-1.3-.86a2.64,2.64,0,0,1-1.25-.45,1,1,0,0,1-.42-.8,1.14,1.14,0,0,1,.46-1,1.91,1.91,0,0,1,1.19-.34,1.87,1.87,0,0,1,1.62.76.2.2,0,0,1,.05.15.23.23,0,0,1-.13.2l-.13,0a.25.25,0,0,1-.21-.11,1.47,1.47,0,0,0-1.22-.56,1.38,1.38,0,0,0-.83.23.69.69,0,0,0-.31.56.61.61,0,0,0,.3.54,2.34,2.34,0,0,0,1,.31,2.56,2.56,0,0,1,1.3.48,1.1,1.1,0,0,1,.4.86,1.08,1.08,0,0,1-.25.69,1.64,1.64,0,0,1-.67.46,2.45,2.45,0,0,1-.91.16A3,3,0,0,1,46.13,61.22Z"/><path class="cls-1" d="M50.22,55.58a.36.36,0,0,1-.11-.28.35.35,0,0,1,.11-.29.43.43,0,0,1,.29-.1.38.38,0,0,1,.27.1.36.36,0,0,1,.12.29.41.41,0,0,1-.4.4A.35.35,0,0,1,50.22,55.58Zm.1,5.69a.25.25,0,0,1-.07-.19V56.93a.21.21,0,0,1,.07-.18.25.25,0,0,1,.19-.07.23.23,0,0,1,.18.07.21.21,0,0,1,.07.18v4.15a.25.25,0,0,1-.07.19.23.23,0,0,1-.18.07A.25.25,0,0,1,50.32,61.27Z"/></svg>