<svg id="Layer_1" data-name="Layer 1" xmlns="http://www.w3.org/2000/svg" viewBox="0 0 70 16.16"><defs><style>.cls-1{fill:#0c1739;}</style></defs><title>MKebsi's Trademark</title><path class="cls-1" d="M6.24,3.88V12A3.12,3.12,0,0,1,3.13,8.89V.77a3.11,3.11,0,0,1,2.2.91A3.07,3.07,0,0,1,6.24,3.88Z"/><path class="cls-1" d="M15.92.77V8.89A3.12,3.12,0,0,1,12.8,12V3.88A3.12,3.12,0,0,1,15.92.77Z"/><path class="cls-1" d="M11.08,3.18V13.85a1.56,1.56,0,1,1-3.11,0V3.18A1.55,1.55,0,0,1,9.52,1.62a1.6,1.6,0,0,1,1.11.46A1.55,1.55,0,0,1,11.08,3.18Z"/><path class="cls-1" d="M17,14.94a1.05,1.05,0,0,1-.3-.75,1.06,1.06,0,0,1,1.05-1.07,1,1,0,0,1,.74.32,1.06,1.06,0,0,1-.74,1.81A1.06,1.06,0,0,1,17,14.94Z"/><path class="cls-1" d="M21.65,14.8a.5.5,0,0,1-.16-.39V1.31a.53.53,0,0,1,.16-.39A.55.55,0,0,1,22,.77a.53.53,0,0,1,.55.54V8l7.05-7A.63.63,0,0,1,30,.77a.5.5,0,0,1,.39.16.52.52,0,0,1,.16.38.62.62,0,0,1-.17.4L25.21,6.93l5.27,7.15a.62.62,0,0,1,.11.33.52.52,0,0,1-.17.38.49.49,0,0,1-.36.17.54.54,0,0,1-.47-.24l-5.18-7L22.58,9.56v4.85a.5.5,0,0,1-.16.39A.53.53,0,0,1,22,15,.57.57,0,0,1,21.65,14.8Z"/><path class="cls-1" d="M38.46,5.56a4.25,4.25,0,0,1,1.63,1.73,5.32,5.32,0,0,1,.58,2.52.49.49,0,0,1-.15.38.52.52,0,0,1-.38.13H32.53a4.07,4.07,0,0,0,.57,1.92,3.59,3.59,0,0,0,1.36,1.32,3.91,3.91,0,0,0,1.9.47,4.23,4.23,0,0,0,1.43-.25,3,3,0,0,0,1.14-.64.57.57,0,0,1,.38-.15.48.48,0,0,1,.32.11.47.47,0,0,1,.2.38.47.47,0,0,1-.16.35,4.6,4.6,0,0,1-1.52.87,5.16,5.16,0,0,1-1.79.35,5,5,0,0,1-2.55-.65,4.59,4.59,0,0,1-1.75-1.8,5.33,5.33,0,0,1-.64-2.6A5.75,5.75,0,0,1,32,7.37a4.45,4.45,0,0,1,1.66-1.8,4.56,4.56,0,0,1,2.42-.64A4.47,4.47,0,0,1,38.46,5.56ZM33.7,6.89a4,4,0,0,0-1.15,2.49h7.07a3.83,3.83,0,0,0-1.09-2.49A3.36,3.36,0,0,0,36.09,6,3.3,3.3,0,0,0,33.7,6.89Z"/><path class="cls-1" d="M50.7,5.57A4.85,4.85,0,0,1,52.52,7.4,5.11,5.11,0,0,1,53.19,10a5.19,5.19,0,0,1-.67,2.6A4.82,4.82,0,0,1,50.7,14.4a5.43,5.43,0,0,1-5.15,0,4.84,4.84,0,0,1-1.83-1.79A5,5,0,0,1,43,10.09V1.31a.51.51,0,0,1,.16-.4.56.56,0,0,1,.39-.14.57.57,0,0,1,.4.14.57.57,0,0,1,.14.4V7a4.25,4.25,0,0,1,1.65-1.52,5,5,0,0,1,2.33-.55A5.18,5.18,0,0,1,50.7,5.57Zm-.57,7.94a3.88,3.88,0,0,0,1.44-1.46,4.31,4.31,0,0,0,0-4.14,3.88,3.88,0,0,0-1.44-1.46,4.22,4.22,0,0,0-4.06,0,3.78,3.78,0,0,0-1.43,1.46A4.13,4.13,0,0,0,44.12,10a4.13,4.13,0,0,0,.52,2.07,3.78,3.78,0,0,0,1.43,1.46,4.09,4.09,0,0,0,4.06,0Z"/><path class="cls-1" d="M57.24,14.69a4,4,0,0,1-1.66-1.13.52.52,0,0,1-.12-.33.51.51,0,0,1,.23-.42.5.5,0,0,1,.31-.09.53.53,0,0,1,.42.2A3.55,3.55,0,0,0,59.34,14a3.54,3.54,0,0,0,2.12-.51,1.57,1.57,0,0,0,.68-1.31c0-1-.92-1.57-2.78-1.83a5.62,5.62,0,0,1-2.66-1,2.14,2.14,0,0,1-.9-1.71,2.44,2.44,0,0,1,1-2.06,4.12,4.12,0,0,1,2.54-.74,4,4,0,0,1,3.47,1.64.44.44,0,0,1,.11.3.49.49,0,0,1-.29.42.85.85,0,0,1-.28.07.53.53,0,0,1-.45-.23,3.11,3.11,0,0,0-2.6-1.18,2.91,2.91,0,0,0-1.76.48,1.42,1.42,0,0,0-.65,1.19,1.34,1.34,0,0,0,.62,1.16,5.27,5.27,0,0,0,2.1.66,5.29,5.29,0,0,1,2.77,1,2.37,2.37,0,0,1,.85,1.83,2.23,2.23,0,0,1-.54,1.47,3.48,3.48,0,0,1-1.43,1,5.31,5.31,0,0,1-1.94.34A5.76,5.76,0,0,1,57.24,14.69Z"/><path class="cls-1" d="M65.94,2.69a.85.85,0,0,1-.24-.61A.76.76,0,0,1,66,1.46a.87.87,0,0,1,.6-.22.85.85,0,0,1,.59.22.78.78,0,0,1,.24.62.82.82,0,0,1-.85.85A.81.81,0,0,1,65.94,2.69Zm.23,12.11a.5.5,0,0,1-.16-.39V5.56a.51.51,0,0,1,.16-.4A.56.56,0,0,1,66.56,5a.57.57,0,0,1,.4.14.57.57,0,0,1,.14.4v8.85a.56.56,0,0,1-.14.39.54.54,0,0,1-.4.16A.53.53,0,0,1,66.17,14.8Z"/></svg>