<svg id="Layer_1" data-name="Layer 1" xmlns="http://www.w3.org/2000/svg" viewBox="0 0 70 70"><defs><style>.cls-1{fill:#fff;}</style></defs><title>MKebsi's Trademark</title><path class="cls-1" d="M53.17,26.61l-.77-.45a1.48,1.48,0,0,1-.74-1.28v-8.4a7.33,7.33,0,0,0-7.34-7.34H25.68a7.33,7.33,0,0,0-7.34,7.34v8.4a1.48,1.48,0,0,1-.74,1.28l-.77.45a1.49,1.49,0,0,0-.74,1.29,1.53,1.53,0,0,0,.19.73,1.58,1.58,0,0,0,.52.54l.83.51A1.49,1.49,0,0,1,18.34,31v7.84a7.34,7.34,0,0,0,7.34,7.34H44.32a7.34,7.34,0,0,0,7.34-7.34V31a1.49,1.49,0,0,1,.71-1.27l.83-.51a1.58,1.58,0,0,0,.52-.54,1.53,1.53,0,0,0,.19-.73A1.49,1.49,0,0,0,53.17,26.61Zm-23.36,8a4.93,4.93,0,0,1-4.93-4.93V16.82a4.93,4.93,0,0,1,4.93,4.93Zm7.65,2.93a2.46,2.46,0,0,1-4.92,0V20.63A2.46,2.46,0,0,1,35,18.17a2.46,2.46,0,0,1,2.46,2.46Zm7.66-7.86a4.93,4.93,0,0,1-4.93,4.93V21.75a4.93,4.93,0,0,1,4.93-4.93Z"/><path class="cls-1" d="M24.19,50.56a.48.48,0,0,1,.15.36v6.7a.48.48,0,0,1-.15.36.49.49,0,0,1-.36.15.5.5,0,0,1-.37-.15.48.48,0,0,1-.15-.36V52.7l-2.39,4.88a.52.52,0,0,1-.45.26.51.51,0,0,1-.47-.31l-2.37-4.74v4.83a.51.51,0,0,1-.14.36.5.5,0,0,1-.37.15.51.51,0,0,1-.37-.15.51.51,0,0,1-.14-.36v-6.7a.51.51,0,0,1,.14-.36.53.53,0,0,1,.83.12l2.93,5.89,2.86-5.89a.51.51,0,0,1,.46-.27A.49.49,0,0,1,24.19,50.56Z"/><path class="cls-1" d="M26,58.12a.59.59,0,0,1,0-.82.56.56,0,0,1,.4-.17.52.52,0,0,1,.4.18.53.53,0,0,1,.17.41.58.58,0,0,1-.57.57A.54.54,0,0,1,26,58.12Z"/><path class="cls-1" d="M28.54,58.05a.32.32,0,0,1-.08-.21V50.7a.27.27,0,0,1,.29-.29.33.33,0,0,1,.22.08.32.32,0,0,1,.08.21v3.63l3.84-3.83a.35.35,0,0,1,.23-.09.29.29,0,0,1,.21.09.32.32,0,0,1,.08.2.33.33,0,0,1-.09.22l-2.84,2.84,2.87,3.9a.32.32,0,0,1,.06.18.27.27,0,0,1-.09.2.26.26,0,0,1-.19.09.28.28,0,0,1-.26-.13l-2.82-3.8-1,1v2.64a.32.32,0,0,1-.08.21.33.33,0,0,1-.22.08A.32.32,0,0,1,28.54,58.05Z"/><path class="cls-1" d="M37.7,53a2.37,2.37,0,0,1,.88,1,2.8,2.8,0,0,1,.32,1.37.25.25,0,0,1-.08.21.27.27,0,0,1-.2.07H34.47a2.12,2.12,0,0,0,.31,1,1.9,1.9,0,0,0,.74.72,2.11,2.11,0,0,0,1,.26,2.65,2.65,0,0,0,.77-.13,1.61,1.61,0,0,0,.62-.36.37.37,0,0,1,.21-.08.28.28,0,0,1,.18.06.28.28,0,0,1,.11.21.26.26,0,0,1-.09.19,2.44,2.44,0,0,1-.83.47,2.69,2.69,0,0,1-1,.19,2.66,2.66,0,0,1-1.39-.35,2.45,2.45,0,0,1-1-1,2.9,2.9,0,0,1-.34-1.42A3,3,0,0,1,34.19,54a2.37,2.37,0,0,1,.9-1,2.5,2.5,0,0,1,1.32-.35A2.53,2.53,0,0,1,37.7,53Zm-2.59.73a2.22,2.22,0,0,0-.63,1.36h3.85a2.09,2.09,0,0,0-.6-1.36,1.82,1.82,0,0,0-1.32-.51A1.79,1.79,0,0,0,35.11,53.74Z"/><path class="cls-1" d="M44.36,53a2.67,2.67,0,0,1,1,1,2.78,2.78,0,0,1,.36,1.4,2.83,2.83,0,0,1-.36,1.42,2.64,2.64,0,0,1-1,1,2.79,2.79,0,0,1-1.41.36,2.74,2.74,0,0,1-1.39-.35,2.66,2.66,0,0,1-1-1,2.75,2.75,0,0,1-.37-1.39V50.7a.28.28,0,0,1,.3-.29.25.25,0,0,1,.21.08.29.29,0,0,1,.08.21v3.09a2.4,2.4,0,0,1,.9-.83,2.67,2.67,0,0,1,1.27-.3A2.79,2.79,0,0,1,44.36,53Zm-.3,4.33a2.14,2.14,0,0,0,.78-.8,2.26,2.26,0,0,0,.28-1.13,2.28,2.28,0,0,0-.28-1.13,2.11,2.11,0,0,0-.78-.79,2.34,2.34,0,0,0-2.22,0,2.11,2.11,0,0,0-.78.79,2.39,2.39,0,0,0-.28,1.13,2.36,2.36,0,0,0,.28,1.13,2.14,2.14,0,0,0,.78.8,2.27,2.27,0,0,0,2.22,0Z"/><path class="cls-1" d="M47.92,58a2.21,2.21,0,0,1-.9-.62.29.29,0,0,1-.07-.18.27.27,0,0,1,.13-.22.23.23,0,0,1,.17,0,.27.27,0,0,1,.23.11,2,2,0,0,0,1.59.6,1.87,1.87,0,0,0,1.15-.28.83.83,0,0,0,.37-.71c0-.52-.5-.85-1.51-1a3.11,3.11,0,0,1-1.45-.52,1.18,1.18,0,0,1-.49-.93,1.35,1.35,0,0,1,.53-1.13,2.26,2.26,0,0,1,1.38-.4,2.19,2.19,0,0,1,1.89.89.27.27,0,0,1,.06.17.26.26,0,0,1-.16.23.56.56,0,0,1-.15,0,.27.27,0,0,1-.24-.13A1.7,1.7,0,0,0,49,53.22a1.56,1.56,0,0,0-1,.26.76.76,0,0,0-.35.65.73.73,0,0,0,.34.63,2.81,2.81,0,0,0,1.14.36,2.85,2.85,0,0,1,1.51.55,1.33,1.33,0,0,1,.46,1,1.23,1.23,0,0,1-.29.8,1.9,1.9,0,0,1-.78.53,2.81,2.81,0,0,1-1.06.19A3.12,3.12,0,0,1,47.92,58Z"/><path class="cls-1" d="M52.66,51.45a.49.49,0,0,1-.13-.33.43.43,0,0,1,.14-.34.48.48,0,0,1,.33-.12.47.47,0,0,1,.32.12.42.42,0,0,1,.13.34.47.47,0,0,1-.79.33Zm.13,6.6a.29.29,0,0,1-.09-.21V53a.28.28,0,0,1,.09-.22.29.29,0,0,1,.21-.08.33.33,0,0,1,.22.08.31.31,0,0,1,.07.22v4.82a.31.31,0,0,1-.07.21.33.33,0,0,1-.22.08A.29.29,0,0,1,52.79,58.05Z"/></svg>